<?xml version="1.0" encoding="UTF-8" standalone="no"?>
<svg
   xmlns:dc="http://purl.org/dc/elements/1.1/"
   xmlns:cc="http://creativecommons.org/ns#"
   xmlns:rdf="http://www.w3.org/1999/02/22-rdf-syntax-ns#"
   xmlns:svg="http://www.w3.org/2000/svg"
   xmlns="http://www.w3.org/2000/svg"
   id="svg8"
   version="1.1"
   viewBox="0 0 36 36">
  <metadata
     id="metadata14">
    <rdf:RDF>
      <cc:Work
         rdf:about="">
        <dc:format>image/svg+xml</dc:format>
        <dc:type
           rdf:resource="http://purl.org/dc/dcmitype/StillImage" />
        <dc:title></dc:title>
      </cc:Work>
    </rdf:RDF>
  </metadata>
  <defs
     id="defs12" />
  <g
     transform="matrix(0.71110327,0,0,0.71110327,5.2027564,5.1988188)"
     id="g824">
    <path
       style="fill:#ef9645"
       d="m 32.302,24.347 c -0.695,-1.01 -0.307,-2.47 -0.48,-4.082 -0.178,-2.63 -1.308,-5.178 -3.5,-7.216 L 20.856,6.107 c 0,0 -1.471,-1.369 -2.841,0.103 -1.368,1.471 0.104,2.84 0.104,2.84 l 3.154,2.934 2.734,2.542 c 0,0 -0.685,0.736 -3.711,-2.078 L 10.076,2.942 c 0,0 -1.473,-1.368 -2.842,0.104 -1.368,1.471 0.103,2.84 0.103,2.84 l 9.664,8.989 c -0.021,-0.02 -0.731,0.692 -0.744,0.68 L 5.917,5.938 c 0,0 -1.472,-1.369 -2.841,0.103 -1.369,1.472 0.103,2.84 0.103,2.84 L 13.52,18.5 c 0.012,0.012 -0.654,0.764 -0.634,0.783 l -8.92,-8.298 c 0,0 -1.472,-1.369 -2.841,0.103 -1.369,1.472 0.103,2.841 0.103,2.841 l 9.484,8.82 c 0.087,0.081 -0.5,0.908 -0.391,1.009 L 3.487,17.402 c 0,0 -1.472,-1.369 -2.841,0.104 -1.369,1.472 0.103,2.841 0.103,2.841 L 11.896,30.71 c 1.861,1.731 3.772,2.607 6.076,2.928 0.469,0.065 1.069,0.065 1.315,0.096 0.777,0.098 1.459,0.374 2.372,0.934 1.175,0.72 2.938,1.02 3.951,-0.063 l 3.454,-3.695 3.189,-3.412 c 1.012,-1.082 0.831,-2.016 0.049,-3.151 z"
       id="path2" />
    <path
       style="fill:#fa743e"
       d="m 1.956,35.026 c -0.256,0 -0.512,-0.098 -0.707,-0.293 -0.391,-0.391 -0.391,-1.023 0,-1.414 L 4.8,29.77 c 0.391,-0.391 1.023,-0.391 1.414,0 0.391,0.391 0.391,1.023 0,1.414 l -3.551,3.55 c -0.195,0.195 -0.451,0.292 -0.707,0.292 z m 6.746,0.922 C 8.593,35.948 8.481,35.93 8.371,35.892 7.85,35.71 7.575,35.14 7.758,34.618 l 0.971,-2.773 c 0.182,-0.521 0.753,-0.795 1.274,-0.614 0.521,0.183 0.796,0.753 0.613,1.274 l -0.971,2.773 c -0.144,0.412 -0.53,0.67 -0.943,0.67 z M 1.035,28.281 c -0.412,0 -0.798,-0.257 -0.943,-0.667 -0.184,-0.521 0.089,-1.092 0.61,-1.276 l 2.495,-0.881 c 0.523,-0.18 1.092,0.091 1.276,0.61 0.184,0.521 -0.089,1.092 -0.61,1.276 L 1.368,28.224 C 1.257,28.263 1.145,28.281 1.035,28.281 Z M 30.495,6.514 c -0.256,0 -0.512,-0.098 -0.707,-0.293 -0.391,-0.391 -0.391,-1.024 0,-1.415 l 3.552,-3.55 c 0.391,-0.39 1.023,-0.39 1.414,0 0.391,0.39 0.391,1.024 0,1.415 l -3.552,3.55 C 31.007,6.417 30.751,6.514 30.495,6.514 Z M 26.331,4.817 C 26.222,4.817 26.11,4.798 26.001,4.76 25.48,4.578 25.205,4.008 25.387,3.486 l 0.97,-2.773 c 0.183,-0.521 0.752,-0.796 1.274,-0.614 0.521,0.182 0.796,0.752 0.614,1.274 l -0.97,2.773 c -0.144,0.413 -0.531,0.671 -0.944,0.671 z m 6.143,5.774 c -0.412,0 -0.798,-0.257 -0.943,-0.667 -0.184,-0.521 0.09,-1.092 0.61,-1.276 l 2.494,-0.881 c 0.522,-0.185 1.092,0.09 1.276,0.61 0.184,0.521 -0.09,1.092 -0.61,1.276 l -2.494,0.881 c -0.111,0.039 -0.223,0.057 -0.333,0.057 z"
       id="path4" />
    <path
       style="fill:#ffdb5e"
       d="m 35.39,23.822 c -0.661,-1.032 -0.224,-2.479 -0.342,-4.096 -0.09,-2.634 -1.133,-5.219 -3.255,-7.33 L 24.565,5.207 c 0,0 -1.424,-1.417 -2.843,0.008 -1.417,1.424 0.008,2.842 0.008,2.842 l 3.054,3.039 2.646,2.632 c 0,0 -0.71,0.712 -3.639,-2.202 -2.931,-2.915 -9.894,-9.845 -9.894,-9.845 0,0 -1.425,-1.417 -2.843,0.008 -1.418,1.424 0.007,2.841 0.007,2.841 l 9.356,9.31 c -0.02,-0.02 -0.754,0.667 -0.767,0.654 L 9.64,4.534 c 0,0 -1.425,-1.418 -2.843,0.007 -1.417,1.425 0.007,2.842 0.007,2.842 l 10.011,9.962 c 0.012,0.012 -0.68,0.741 -0.66,0.761 L 7.52,9.513 c 0,0 -1.425,-1.417 -2.843,0.008 -1.418,1.425 0.007,2.843 0.007,2.843 l 9.181,9.135 c 0.084,0.083 -0.53,0.891 -0.425,0.996 L 6.824,15.912 c 0,0 -1.425,-1.417 -2.843,0.008 -1.418,1.425 0.007,2.843 0.007,2.843 l 10.79,10.732 c 1.802,1.793 3.682,2.732 5.974,3.131 0.467,0.081 1.067,0.101 1.311,0.14 0.773,0.124 1.445,0.423 2.34,1.014 1.15,0.759 2.902,1.118 3.951,0.07 l 3.577,-3.576 3.302,-3.302 c 1.049,-1.05 0.9,-1.99 0.157,-3.15 z"
       id="path6" />
  </g>
</svg>
