<?xml version="1.0" encoding="UTF-8" standalone="no"?>
<svg
   xmlns:dc="http://purl.org/dc/elements/1.1/"
   xmlns:cc="http://creativecommons.org/ns#"
   xmlns:rdf="http://www.w3.org/1999/02/22-rdf-syntax-ns#"
   xmlns:svg="http://www.w3.org/2000/svg"
   xmlns="http://www.w3.org/2000/svg"
   id="svg22"
   version="1.1"
   viewBox="0 0 36 36">
  <metadata
     id="metadata28">
    <rdf:RDF>
      <cc:Work
         rdf:about="">
        <dc:format>image/svg+xml</dc:format>
        <dc:type
           rdf:resource="http://purl.org/dc/dcmitype/StillImage" />
        <dc:title></dc:title>
      </cc:Work>
    </rdf:RDF>
  </metadata>
  <defs
     id="defs26" />
  <g
     transform="matrix(0.78208232,0,0,0.78208232,3.9225182,3.9225182)"
     id="g837">
    <path
       style="fill:#d79e84"
       d="m 35,30 c 0,1.104 -0.896,2 -2,2 H 3 C 1.896,32 1,31.104 1,30 V 6 C 1,4.896 1.896,4 3,4 h 30 c 1.104,0 2,0.896 2,2 z"
       id="path2" />
    <path
       style="fill:#bf6952"
       d="M 33,4 H 3 C 1.896,4 1,4.896 1,6 v 24 c 0,0.389 0.116,0.748 0.307,1.055 L 34.637,4.857 C 34.276,4.34 33.679,4 33,4 Z"
       id="path4" />
    <path
       style="fill:#8ccaf7"
       d="M 31,22 V 9 C 31,8.448 30.553,8 30,8 H 6 C 5.448,8 5,8.448 5,9 v 13 z"
       id="path6" />
    <path
       style="fill:#5dadec"
       d="M 6,28 H 19 V 21 H 5 v 6 c 0,0.553 0.448,1 1,1 z"
       id="path8" />
    <path
       style="fill:#292f33"
       d="m 19,21 v 7 h 11 c 0.553,0 1,-0.447 1,-1 v -6 z"
       id="path10" />
    <path
       style="fill:#67757f"
       d="m 20,19 c -0.613,0 -0.852,1.127 -1.405,2 -0.349,0.55 -0.822,1 -1.595,1 -2,0 -2,3 -3,3 -1.256,0 -2.512,1.578 -3.273,3 H 19 c 0.879,-1.758 1.761,-3.514 4,-3.913 C 23.307,24.032 23.638,24 24,24 c 3,0 3.106,-1.553 4,-2 1.358,-0.679 2.251,-0.437 3,-0.211 V 19 Z"
       id="path12" />
    <path
       style="fill:#e75a70"
       d="m 25,11 -4,4 v 4 h 8 v -4 z"
       id="path14" />
    <path
       style="fill:#292f33"
       d="m 29,16 c -0.256,0 -0.512,-0.098 -0.707,-0.293 L 25,12.414 21.707,15.707 c -0.391,0.391 -1.023,0.391 -1.414,0 -0.391,-0.391 -0.391,-1.023 0,-1.414 l 4,-4 c 0.391,-0.391 1.023,-0.391 1.414,0 l 4,4 c 0.391,0.391 0.391,1.023 0,1.414 C 29.512,15.902 29.256,16 29,16 Z"
       id="path16" />
    <path
       style="fill:#bb1a34"
       d="m 23,16 h 2 v 3 h -2 z"
       id="path18" />
    <path
       style="fill:#ffffff"
       d="m 17.219,14.125 c 0,-1.036 -0.839,-1.875 -1.875,-1.875 -0.079,0 -0.155,0.014 -0.232,0.023 0.028,-0.129 0.044,-0.261 0.044,-0.398 0,-1.036 -0.839,-1.875 -1.875,-1.875 -0.668,0 -1.251,0.352 -1.583,0.878 -0.208,-0.08 -0.431,-0.128 -0.667,-0.128 -0.952,0 -1.73,0.713 -1.851,1.632 C 8.969,12.299 8.741,12.25 8.5,12.25 7.464,12.25 6.625,13.089 6.625,14.125 6.625,15.161 7.464,16 8.5,16 8.541,16 8.58,15.99 8.621,15.988 L 8.625,16 h 6.75 v -0.003 c 1.021,-0.017 1.844,-0.847 1.844,-1.872 z"
       id="path20" />
  </g>
</svg>
