<?xml version="1.0" encoding="UTF-8" standalone="no"?>
<svg
   xmlns:dc="http://purl.org/dc/elements/1.1/"
   xmlns:cc="http://creativecommons.org/ns#"
   xmlns:rdf="http://www.w3.org/1999/02/22-rdf-syntax-ns#"
   xmlns:svg="http://www.w3.org/2000/svg"
   xmlns="http://www.w3.org/2000/svg"
   id="svg8"
   version="1.1"
   viewBox="0 0 36 36">
  <metadata
     id="metadata14">
    <rdf:RDF>
      <cc:Work
         rdf:about="">
        <dc:format>image/svg+xml</dc:format>
        <dc:type
           rdf:resource="http://purl.org/dc/dcmitype/StillImage" />
        <dc:title></dc:title>
      </cc:Work>
    </rdf:RDF>
  </metadata>
  <defs
     id="defs12" />
  <g
     transform="matrix(0.79661017,0,0,0.79661017,3.6610169,3.6610169)"
     id="g830">
    <path
       style="fill:#ffe8b6"
       d="m 21,18 c 0,-2.001 3.246,-3.369 5,-6 C 28,9 28,2 28,2 H 8 c 0,0 0,7 2,10 1.754,2.631 5,3.999 5,6 0,2.001 -3.246,3.369 -5,6 -2,3 -2,10 -2,10 h 20 c 0,0 0,-7 -2,-10 -1.754,-2.631 -5,-3.999 -5,-6 z"
       id="path2" />
    <path
       style="fill:#ffac33"
       d="M 20.999,24 C 20,24 18.942,23 18.942,22 19,20.287 19,19.154 19,18 c 0,-3.22 3.034,-4.561 4.9,-7 H 12.1 c 1.865,2.439 4.9,3.78 4.9,7 0,1.155 0,2.289 0.058,4 0,1 -1.058,2 -2.058,2 -2,0 -3.595,1.784 -4,3 -1,3 -1,7 -1,7 h 16 c 0,0 0,-4 -1,-7 -0.405,-1.216 -2.001,-3 -4.001,-3 z"
       id="path4" />
    <path
       style="fill:#3b88c3"
       d="m 30,34 c 0,1.104 -0.896,2 -2,2 H 8 C 6.896,36 6,35.104 6,34 6,32.896 6.896,32 8,32 h 20 c 1.104,0 2,0.896 2,2 z M 30,2 c 0,1.104 -0.896,2 -2,2 H 8 C 6.896,4 6,3.104 6,2 6,0.896 6.896,0 8,0 h 20 c 1.104,0 2,0.896 2,2 z"
       id="path6" />
  </g>
</svg>
