<?xml version="1.0" encoding="UTF-8" standalone="no"?>
<svg
   xmlns:dc="http://purl.org/dc/elements/1.1/"
   xmlns:cc="http://creativecommons.org/ns#"
   xmlns:rdf="http://www.w3.org/1999/02/22-rdf-syntax-ns#"
   xmlns:svg="http://www.w3.org/2000/svg"
   xmlns="http://www.w3.org/2000/svg"
   id="svg12"
   version="1.1"
   viewBox="0 0 36 36">
  <metadata
     id="metadata18">
    <rdf:RDF>
      <cc:Work
         rdf:about="">
        <dc:format>image/svg+xml</dc:format>
        <dc:type
           rdf:resource="http://purl.org/dc/dcmitype/StillImage" />
        <dc:title></dc:title>
      </cc:Work>
    </rdf:RDF>
  </metadata>
  <defs
     id="defs16" />
  <g
     transform="matrix(0.71186441,0,0,0.71186441,5.1850009,5.186441)"
     id="g840">
    <path
       style="fill:#ffdc5d"
       d="m 3,26 h 8 V 36 H 3 Z m 22,0 h 8 v 10 h -8 z"
       id="path2" />
    <path
       style="fill:#f9ca55"
       d="m 33,28.72 c 0,0 -3,2 -8,1 v -5 h 8 z m -30,0 c 0,0 3,2 8,1 v -5 H 3 Z"
       id="path4" />
    <path
       style="fill:#ef9645"
       d="m 3.983,18.604 h 8 v 8 h -8 z m 20.023,-0.5 h 8 v 8 h -8 z"
       id="path6" />
    <path
       style="fill:#ffdc5d"
       d="m 0.373,11.835 c 0,0 0.003,-1.225 1.227,-1.222 1.226,0.004 1.222,1.229 1.222,1.229 l -0.019,5.684 c 0.195,-0.09 0.399,-0.171 0.613,-0.241 L 3.441,9.396 c 0,0 0.004,-1.225 1.227,-1.221 1.224,0.003 1.221,1.229 1.221,1.229 l -0.021,7.42 c 0.199,-0.018 0.404,-0.032 0.61,-0.042 L 6.506,8.18 c 0,0 0.003,-1.225 1.228,-1.22 1.225,0.004 1.22,1.229 1.22,1.229 l -0.028,8.6 c 0.21,0.012 0.412,0.033 0.614,0.052 L 9.565,8.802 c 0,0 0.004,-1.225 1.227,-1.22 1.224,0.003 1.219,1.227 1.219,1.227 l -0.024,8.501 -0.003,0.681 v 0.611 C 8.31,18.593 5.851,21.644 5.84,24.706 c 0,0.612 0.612,0.616 0.612,0.616 0.01,-3.678 2.467,-6.115 6.142,-6.104 l 1.801,-4.188 c 0,0 0.395,-1.159 1.556,-0.762 1.158,0.392 0.765,1.553 0.765,1.553 l -0.893,3.105 C 15.469,20.16 15.138,21.402 14.964,22.67 14.466,26.254 11.383,29.01 7.665,29 3.61,28.983 0.33,25.685 0.343,21.63 0.344,21.416 0.357,21.212 0.377,21.02 L 0.345,21.016 Z m 35.244,0 c 0,0 -0.003,-1.225 -1.227,-1.222 -1.226,0.004 -1.223,1.229 -1.223,1.229 l 0.019,5.684 c -0.194,-0.09 -0.399,-0.171 -0.612,-0.241 L 32.549,9.396 c 0,0 -0.004,-1.225 -1.227,-1.221 C 30.097,8.178 30.1,9.404 30.1,9.404 l 0.022,7.42 c -0.198,-0.018 -0.403,-0.032 -0.61,-0.042 L 29.485,8.18 c 0,0 -0.004,-1.225 -1.229,-1.22 -1.225,0.004 -1.22,1.229 -1.22,1.229 l 0.028,8.6 c -0.21,0.012 -0.412,0.033 -0.614,0.052 L 26.425,8.802 c 0,0 -0.005,-1.225 -1.228,-1.22 -1.224,0.003 -1.219,1.227 -1.219,1.227 l 0.024,8.501 0.003,0.681 v 0.611 c 3.674,-0.009 6.133,3.042 6.145,6.104 0,0.612 -0.612,0.616 -0.612,0.616 -0.011,-3.678 -2.468,-6.115 -6.142,-6.104 L 21.595,15.03 c 0,0 -0.394,-1.159 -1.556,-0.762 -1.157,0.392 -0.765,1.553 -0.765,1.553 l 0.893,3.105 c 0.354,1.234 0.685,2.476 0.859,3.744 0.498,3.584 3.58,6.34 7.299,6.33 4.055,-0.017 7.336,-3.315 7.322,-7.37 -10e-4,-0.214 -0.014,-0.418 -0.034,-0.61 l 0.032,-0.004 z"
       id="path8" />
    <path
       style="fill:#5dadec"
       d="M 23.541,6.458 C 23.328,6.458 23.112,6.39 22.931,6.25 22.493,5.912 22.413,5.284 22.751,4.847 L 25.73,0.992 c 0.335,-0.436 0.965,-0.52 1.402,-0.18 0.438,0.338 0.518,0.966 0.18,1.403 L 24.333,6.07 c -0.196,0.255 -0.492,0.388 -0.792,0.388 z m -11.02,0 c -0.299,0 -0.595,-0.134 -0.792,-0.389 L 8.75,2.215 C 8.413,1.778 8.494,1.15 8.931,0.812 9.368,0.475 9.995,0.555 10.334,0.992 l 2.979,3.855 C 13.65,5.284 13.57,5.912 13.133,6.25 12.95,6.391 12.735,6.458 12.521,6.458 Z M 18,6 C 17.448,6 17,5.552 17,5 V 1 c 0,-0.552 0.448,-1 1,-1 0.553,0 1,0.448 1,1 v 4 c 0,0.552 -0.447,1 -1,1 z"
       id="path10" />
  </g>
</svg>
