<?xml version="1.0" encoding="UTF-8" standalone="no"?>
<svg
   xmlns:dc="http://purl.org/dc/elements/1.1/"
   xmlns:cc="http://creativecommons.org/ns#"
   xmlns:rdf="http://www.w3.org/1999/02/22-rdf-syntax-ns#"
   xmlns:svg="http://www.w3.org/2000/svg"
   xmlns="http://www.w3.org/2000/svg"
   id="svg6"
   version="1.1"
   viewBox="0 0 36 36">
  <metadata
     id="metadata12">
    <rdf:RDF>
      <cc:Work
         rdf:about="">
        <dc:format>image/svg+xml</dc:format>
        <dc:type
           rdf:resource="http://purl.org/dc/dcmitype/StillImage" />
        <dc:title></dc:title>
      </cc:Work>
    </rdf:RDF>
  </metadata>
  <defs
     id="defs10" />
  <g
     transform="matrix(0.74957836,0,0,0.74957836,3.7977388,4.5979137)"
     id="g824">
    <path
       style="fill:#ffdb5e"
       d="m 34.956,18.084 c 0,0.503 -0.12,0.975 -0.321,1.404 -1.341,4.326 -7.619,4.01 -16.549,4.221 -1.493,0.035 -0.639,1.798 -0.115,5.668 0.341,2.517 -1.282,6.382 -4.01,6.382 -4.498,0 -0.171,-3.548 -4.148,-12.322 C 7.688,18.749 2.938,21.375 2.938,16.666 V 5.948 C 2.938,4.115 3.118,2.353 5.696,2.063 8.195,1.781 7.633,0 11.238,0 h 18.044 c 1.838,0 3.333,1.496 3.333,3.334 0,0.762 -0.267,1.456 -0.698,2.018 1.02,0.571 1.72,1.649 1.72,2.899 0,0.76 -0.266,1.454 -0.696,2.015 1.023,0.57 1.725,1.649 1.725,2.901 0,0.909 -0.368,1.733 -0.961,2.336 0.757,0.611 1.251,1.535 1.251,2.581 z"
       id="path2" />
    <path
       style="fill:#ee9547"
       d="m 23.02,14.751 h 8.604 c 1.17,0 2.268,0.626 2.866,1.633 0.246,0.415 0.109,0.952 -0.307,1.199 -0.415,0.247 -0.952,0.108 -1.199,-0.307 -0.283,-0.479 -0.806,-0.775 -1.361,-0.775 h -8.81 c -0.873,0 -1.583,0.71 -1.583,1.583 0,0.873 0.71,1.583 1.583,1.583 H 28.7 c 0.483,0 0.875,0.392 0.875,0.875 0,0.483 -0.392,0.875 -0.875,0.875 h -5.888 c -1.838,0 -3.333,-1.495 -3.333,-3.333 0,-1.025 0.475,-1.932 1.205,-2.544 -0.615,-0.605 -0.998,-1.445 -0.998,-2.373 0,-1.028 0.478,-1.938 1.212,-2.549 -0.611,-0.604 -0.99,-1.441 -0.99,-2.367 0,-1.12 0.559,-2.108 1.409,-2.713 -0.524,-0.589 -0.852,-1.356 -0.852,-2.204 0,-1.838 1.495,-3.333 3.333,-3.333 h 5.484 c 1.17,0 2.269,0.625 2.867,1.632 0.247,0.415 0.11,0.952 -0.305,1.199 C 31.428,3.077 30.891,2.942 30.645,2.527 30.36,2.048 29.837,1.751 29.282,1.751 h -5.484 c -0.873,0 -1.583,0.71 -1.583,1.583 0,0.873 0.71,1.583 1.583,1.583 h 6.506 c 1.17,0 2.27,0.626 2.867,1.633 0.247,0.416 0.11,0.953 -0.305,1.199 C 32.447,8 31.912,7.859 31.667,7.444 31.378,6.957 30.868,6.667 30.304,6.667 h -7.063 c -0.873,0 -1.583,0.711 -1.583,1.584 0,0.873 0.71,1.583 1.583,1.583 h 8.091 c 1.17,0 2.269,0.625 2.867,1.632 0.247,0.415 0.11,0.952 -0.305,1.199 -0.417,0.246 -0.953,0.11 -1.199,-0.305 -0.289,-0.486 -0.799,-0.776 -1.363,-0.776 H 23.02 c -0.873,0 -1.583,0.71 -1.583,1.583 0,0.873 0.709,1.584 1.583,1.584 z"
       id="path4" />
  </g>
</svg>
