<?xml version="1.0" encoding="UTF-8" standalone="no"?>
<svg
   xmlns:dc="http://purl.org/dc/elements/1.1/"
   xmlns:cc="http://creativecommons.org/ns#"
   xmlns:rdf="http://www.w3.org/1999/02/22-rdf-syntax-ns#"
   xmlns:svg="http://www.w3.org/2000/svg"
   xmlns="http://www.w3.org/2000/svg"
   id="svg14"
   version="1.1"
   viewBox="0 0 36 36">
  <metadata
     id="metadata20">
    <rdf:RDF>
      <cc:Work
         rdf:about="">
        <dc:format>image/svg+xml</dc:format>
        <dc:type
           rdf:resource="http://purl.org/dc/dcmitype/StillImage" />
        <dc:title></dc:title>
      </cc:Work>
    </rdf:RDF>
  </metadata>
  <defs
     id="defs18" />
  <g
     transform="matrix(0.73698128,0,0,0.73698128,4.7288136,4.7398603)"
     id="g841">
    <path
       style="fill:#ef9645"
       d="M 4.861,9.147 C 5.801,8.49 7.218,8.616 8.062,9.313 L 7.094,7.906 C 6.315,6.795 6.594,5.593 7.706,4.813 8.818,4.036 11.969,6.125 11.969,6.125 11.183,5.003 11.33,3.581 12.452,2.794 13.574,2.01 15.122,2.281 15.908,3.405 L 26.328,18.125 25,31 13.917,26.958 4.25,12.625 C 3.457,11.496 3.731,9.939 4.861,9.147 Z"
       id="path2" />
    <path
       style="fill:#ffdc5d"
       d="m 2.695,17.336 c 0,0 -1.132,-1.65 0.519,-2.781 1.649,-1.131 2.78,0.518 2.78,0.518 l 5.251,7.658 c 0.181,-0.302 0.379,-0.6 0.6,-0.894 L 4.557,11.21 c 0,0 -1.131,-1.649 0.519,-2.78 1.649,-1.131 2.78,0.518 2.78,0.518 l 6.855,9.997 c 0.255,-0.208 0.516,-0.417 0.785,-0.622 L 7.549,6.732 c 0,0 -1.131,-1.649 0.519,-2.78 1.649,-1.131 2.78,0.518 2.78,0.518 l 7.947,11.589 c 0.292,-0.179 0.581,-0.334 0.871,-0.498 L 12.238,4.729 c 0,0 -1.131,-1.649 0.518,-2.78 1.649,-1.131 2.78,0.518 2.78,0.518 l 7.854,11.454 1.194,1.742 c -4.948,3.394 -5.419,9.779 -2.592,13.902 0.565,0.825 1.39,0.26 1.39,0.26 -3.393,-4.949 -2.357,-10.51 2.592,-13.903 L 24.515,8.62 c 0,0 -0.545,-1.924 1.378,-2.47 1.924,-0.545 2.47,1.379 2.47,1.379 l 1.685,5.004 c 0.668,1.984 1.379,3.961 2.32,5.831 2.657,5.28 1.07,11.842 -3.94,15.279 -5.465,3.747 -12.936,2.354 -16.684,-3.11 z"
       id="path4" />
    <g
       style="fill:#5dadec"
       id="g12">
      <path
         d="M 12,32.042 C 8,32.042 3.958,28 3.958,24 3.958,23.447 3.553,23 3,23 2.447,23 1.958,23.447 1.958,24 1.958,30 6,34.042 12,34.042 c 0.553,0 1,-0.489 1,-1.042 0,-0.553 -0.447,-0.958 -1,-0.958 z"
         id="path6" />
      <path
         d="M 7,34 C 4,34 2,32 2,29 2,28.447 1.553,28 1,28 0.447,28 0,28.447 0,29 0,33 3,36 7,36 7.553,36 8,35.553 8,35 8,34.447 7.553,34 7,34 Z M 24,2 c -0.552,0 -1,0.448 -1,1 0,0.552 0.448,1 1,1 4,0 8,3.589 8,8 0,0.552 0.448,1 1,1 0.552,0 1,-0.448 1,-1 C 34,6.486 30,2 24,2 Z"
         id="path8" />
      <path
         d="m 29,0.042 c -0.552,0 -1,0.406 -1,0.958 0,0.552 0.448,1.042 1,1.042 3,0 4.958,2.225 4.958,4.958 0,0.552 0.489,1 1.042,1 0.553,0 0.958,-0.448 0.958,-1 C 35.958,3.163 33,0.042 29,0.042 Z"
         id="path10" />
    </g>
  </g>
</svg>
