<?xml version="1.0" encoding="UTF-8" standalone="no"?>
<svg
   xmlns:dc="http://purl.org/dc/elements/1.1/"
   xmlns:cc="http://creativecommons.org/ns#"
   xmlns:rdf="http://www.w3.org/1999/02/22-rdf-syntax-ns#"
   xmlns:svg="http://www.w3.org/2000/svg"
   xmlns="http://www.w3.org/2000/svg"
   id="svg8"
   version="1.1"
   viewBox="0 0 36 36">
  <metadata
     id="metadata14">
    <rdf:RDF>
      <cc:Work
         rdf:about="">
        <dc:format>image/svg+xml</dc:format>
        <dc:type
           rdf:resource="http://purl.org/dc/dcmitype/StillImage" />
        <dc:title></dc:title>
      </cc:Work>
    </rdf:RDF>
  </metadata>
  <defs
     id="defs12" />
  <g
     transform="matrix(0.78813559,0,0,0.78813559,3.8135593,3.8135593)"
     id="g832">
    <circle
       style="fill:#ffcc4d"
       cx="18"
       cy="18"
       r="18"
       id="circle2" />
    <path
       style="fill:#664500"
       d="m 14.034,14.499 c 0,1.934 -1.119,3.5 -2.5,3.5 -1.381,0 -2.5,-1.566 -2.5,-3.5 0,-1.933 1.119,-3.5 2.5,-3.5 1.381,0 2.5,1.567 2.5,3.5 m 13,0 c 0,1.934 -1.119,3.5 -2.5,3.5 -1.381,0 -2.5,-1.566 -2.5,-3.5 0,-1.933 1.119,-3.5 2.5,-3.5 1.381,0 2.5,1.567 2.5,3.5 M 25.001,27.004 H 10 c -1,0 -1,-1 -1,-1 v -1 c 0,0 0,-1.003 1,-1.003 l 15.001,0.003 z"
       id="path4" />
    <path
       style="fill:#99aab5"
       d="m 35.255,26.084 -7.713,-2.121 c -0.72,-0.197 -1.049,0.287 -1.171,0.547 L 24.731,23.726 24,25.255 v -2.254 h -2 v 2 h -2 v -2 h -2.001 v 2 H 16 v -2 h -2 v 2 h -2 v -2 h -2 v 3 h 2 v 2 h 2 v -2 h 1.999 v 2 h 2 v -2 H 20 v 2 h 2 v -2 h 1.643 l -0.58,1.212 1.648,0.788 -0.099,0.207 c 0,0 -0.248,0.737 0.373,1.275 0.621,0.537 5.285,4.735 5.285,4.735 0,0 0.899,0.866 1.769,0.079 0.738,-0.67 3.649,-6.02 3.914,-6.983 0.266,-0.964 -0.698,-1.23 -0.698,-1.23 z m -3.772,6.071 -2.644,-2.248 1.614,-3.069 3.338,1.132 z"
       id="path6" />
  </g>
</svg>
